<svg xmlns="http://www.w3.org/2000/svg" width="146" height="157" viewBox="0 0 146 157"><path d="M72.513-3.9227c-.9774 0-1.9547.2481-2.8855.5458-.6051.1984-1.1636.3969-1.7221.7442L9.543 32.9918c-.3724.2481-.6981.5458-1.0705.8434-.0465.0497-.0931.0497-.1861.0993l-.6982.6946-.7446.7939c-.1396.248-.2327.4961-.4189.7442-.0465.1489-.1396.1985-.2327.3473s-.1396.2977-.2327.4466c-.1396.2481-.2792.5457-.4189.8434l-.1396.4962c-.3723 1.0916-.6516 2.2327-.6516 3.4731L4.47 113.4693c0 3.622 1.8151 6.9959 4.7472 8.8317l57.9436 36.1206c2.9321 1.8358 6.6554 1.8854 9.5409.0992l58.2694-35.6244c2.9786-1.8358 4.7937-5.1601 4.8403-8.7821l.2792-71.7451c0-1.1908-.2327-2.2823-.605-3.3739v-.1488-.0496c-.0466-.0993-.0466-.1489-.0931-.2481-.0466 0 0-.0496 0-.0496v-.0993l-.5585-1.0419c-.0465-.1488-.1396-.2481-.1862-.3473-.1396-.2481-.3258-.4962-.4654-.7443l-.4188-.5954c-.1397-.1488-.2328-.2976-.3724-.4465-.2327-.2481-.4654-.4962-.6981-.6946-.0931-.0993-.1862-.1489-.2792-.1985-.3258-.2977-.6516-.5458-1.0239-.7938L77.3998-2.5831c-.3258-.1984-.605-.2977-.9308-.4465l-.1862-.0496a8.607 8.607 0 0 0-3.3509-.8435h-.2327-.1397-.0465zm.1862 3.2747h.0465c1.0705 0 2.1409.2977 3.0717.8931l58.0367 36.1702c.7912.4962 1.2566 1.3892 1.8151 2.1831L75.864 75.0663c-2.0944 1.2901-5.0265 1.2404-7.1208-.0496L9.2637 37.9534c.5585-.7939 1.0239-1.687 1.8151-2.1335L69.3948.2451c1.0239-.645 2.1408-.9427 3.3044-.8931zm-.1862 30.0674c-5.9572-.0496-10.8441 3.0266-10.8441 6.847-.0465 3.7709 4.8403 6.8471 10.7976 6.8967 5.9572 0 10.7975-2.977 10.7975-6.7974 0-3.7709-4.7937-6.9463-10.751-6.9463zM7.8675 40.9304l59.2933 36.9144c1.117.6947 2.327 1.1412 3.6302 1.3397l-.3723 76.9547v.1985c-.6051-.1488-1.1636-.3969-1.6755-.6946l-58.0367-36.1702c-1.9082-1.1908-3.2113-3.6716-3.1648-6.0036l.2793-71.6955c0-.2977 0-.5457.0465-.8434zm129.1049.645c.0465.2977.0465.4961.0465.7938l-.2793 71.7451c0 2.332-1.3496 4.7632-3.2578 5.9539l-58.316 35.5749c-.5119.2977-1.1169.5458-1.6754.6946v-.1985l.3258-76.9547c1.2566-.1985 2.4666-.645 3.5836-1.29zM20.0612 61.273c-.6515 0-1.3031.1985-1.8616.5458-3.0717 1.8854-3.2113 7.9386-.2327 13.446 2.9786 5.557 7.8189 8.4844 10.9371 6.599 3.0718-1.8855 3.1648-7.889.2328-13.446-2.4202-4.4655-6.0969-7.2936-9.0756-7.1448zm100.3891 6.8471c-2.7925.248-6.1434 2.8777-8.3774 7.0455-3.0252 5.4577-2.9786 11.5109.0931 13.3963 3.1182 1.9351 8.0516-.9427 11.0767-6.4501 2.9787-5.5074 2.9321-11.5109-.1396-13.446-.7446-.4465-1.6755-.645-2.6528-.5457zM34.5355 88.2642c-.6516 0-1.3031.1985-1.8616.5458-3.1183 1.8854-3.2114 7.9386-.2327 13.446 2.9321 5.557 7.8189 8.4844 10.8906 6.599 3.1182-1.8854 3.2113-7.889.2792-13.446-2.4201-4.4655-6.1434-7.2936-9.0755-7.1448zm64.1336 20.9381c-2.9321-.1489-6.6554 2.6297-9.1221 7.0951-2.9786 5.5074-2.9321 11.511.1397 13.446 3.0717 1.8854 8.0516-1.0419 11.0302-6.5493 3.0251-5.5074 2.9786-11.511-.0931-13.446-.605-.3473-1.2566-.5458-1.9547-.5458zm-49.6593 6.0532c-.6516.0496-1.3032.2481-1.8617.5954-3.1182 1.8854-3.2113 7.8889-.2792 13.3964 2.9786 5.557 7.8654 8.4843 10.9371 6.5989 3.1183-1.8854 3.2114-7.889.2327-13.446-2.3736-4.4654-6.0968-7.244-9.0289-7.1447zm0 0" fill="#7b80de"/></svg>